# xmcd CD database file
#
# Track frame offsets:
#	150
#	11320
#	25564
#	37825
#	49662
#	64170
#	77169
#	91276
#	103968
#	122103
#	143386
#
# Disc length: 2103 seconds
#
# Revision: 0
# Processed by: cddbd v1.5.2PL0 Copyright (c) Steve Scherf et al.
# Submitted via: CDex 1.79
#
DISCID=7d08350b
DTITLE=New Riders Of The Purple Sage - Home, Home On The Road
DYEAR=1974
DGENRE=Country
TTITLE0=Hi, Hello, How Are You (live)
TTITLE1=She's No Angel (live)
TTITLE2=Groupie (live)
TTITLE3=Sunday Susie (live)
TTITLE4=Kick In The Head (live)
TTITLE5=Truck Drivin' Man (live)
TTITLE6=Hello Mary Lou (live)
TTITLE7=Sutter's Mill (live)
TTITLE8=Dead Flowers (live)
TTITLE9=Henry (live)
TTITLE10=School Days (live)
EXTD=YEAR: 1974
EXTT0=
EXTT1=
EXTT2=
EXTT3=
EXTT4=
EXTT5=
EXTT6=
EXTT7=
EXTT8=
EXTT9=
EXTT10=
PLAYORDER=
